<svg xmlns="http://www.w3.org/2000/svg"width="31" height="31" viewBox="0 0 31 31" fill="none">
  <ellipse cx="15.5" cy="15.4122" rx="15" ry="14.6565" fill="#2AA1DA"/>
  <path d="M10.9392 19.8154C10.9343 19.5377 11.1796 19.3214 11.4581 19.3579L13.8251 19.6681C13.898 19.6776 13.9676 19.7043 14.0281 19.7458L15.1089 20.4881C15.3619 20.6618 15.3762 21.0265 15.1375 21.2169L11.7561 23.9141C11.458 24.1519 11.0123 23.9445 11.0056 23.5649L10.9392 19.8154Z" fill="#A9C6D8"/>
  <path d="M11.4361 23.7279C11.3534 23.9552 11.0206 23.9169 10.9932 23.6768L10.3569 18.0974C10.3402 17.9508 10.4647 17.8265 10.6115 17.8434L13.1699 18.1385C13.3166 18.1555 13.4088 18.3047 13.3582 18.4436L11.4361 23.7279Z" fill="#C8DAEA"/>
  <path d="M21.1973 9.92659C22.1518 9.5262 23.1157 10.4785 22.7096 11.4207L17.8702 22.6498C17.5482 23.397 16.5593 23.5786 15.9849 22.9961L12.8123 19.7789C12.7376 19.7032 12.6525 19.6381 12.5597 19.5854L10.1179 18.202C10.0522 18.1647 9.98288 18.134 9.91104 18.1101L8.19796 17.5419C7.19266 17.2085 7.13641 15.8253 8.11151 15.4162L21.1973 9.92659Z" fill="white"/>
  <path d="M17.7273 13.6371C18.1882 13.3381 18.6963 13.9478 18.3104 14.3367L13.1054 19.5827C12.9559 19.7333 12.7209 19.7624 12.5378 19.6529L11.0378 18.7555C10.7476 18.5819 10.7393 18.1692 11.0223 17.9856L17.7273 13.6371Z" fill="#C8DAEA"/>
</svg>
